<svg width="18" height="18" viewBox="0 0 18 18" fill="none" xmlns="http://www.w3.org/2000/svg">
<g clip-path="url(#clip0_9571_25723)">
<path d="M7.93732 3.82165C8.23293 3.77795 8.53789 3.7545 8.85198 3.7545C12.5653 3.7545 15.0019 7.03124 15.8205 8.32741C15.9196 8.48429 15.9691 8.56273 15.9968 8.68372C16.0176 8.77458 16.0176 8.91793 15.9968 9.00879C15.969 9.12977 15.9192 9.20873 15.8194 9.36665C15.6013 9.71185 15.2687 10.197 14.8282 10.7231M5.01425 5.00199C3.4416 6.06881 2.37396 7.55097 1.88418 8.32629C1.78466 8.48383 1.7349 8.56261 1.70716 8.68358C1.68633 8.77444 1.68632 8.91777 1.70714 9.00863C1.73487 9.12961 1.7844 9.20805 1.88347 9.36492C2.70207 10.6611 5.1387 13.9378 8.85198 13.9378C10.3492 13.9378 11.6389 13.4051 12.6987 12.6843M2.30556 2.29974L15.3984 15.3926M7.30897 7.30316C6.91408 7.69805 6.66984 8.24358 6.66984 8.84616C6.66984 10.0513 7.64682 11.0283 8.85198 11.0283C9.45456 11.0283 10.0001 10.7841 10.395 10.3892" stroke="#340717" stroke-width="1.45476" stroke-linecap="round" stroke-linejoin="round"/>
</g>
<defs>
<clipPath id="clip0_9571_25723">
<rect width="17.4571" height="17.4571" fill="white" transform="translate(0.123169 0.117615)"/>
</clipPath>
</defs>
</svg>
