<svg width="18" height="18" viewBox="0 0 18 18" fill="none" xmlns="http://www.w3.org/2000/svg">
<path d="M1.76029 9.24731C1.66124 9.09046 1.61171 9.01204 1.58398 8.89107C1.56315 8.80021 1.56315 8.65692 1.58398 8.56605C1.61171 8.44509 1.66124 8.36666 1.76029 8.20981C2.57889 6.91363 5.01552 3.6369 8.7288 3.6369C12.4421 3.6369 14.8787 6.91363 15.6973 8.20981C15.7964 8.36666 15.8459 8.44509 15.8736 8.56605C15.8944 8.65692 15.8944 8.80021 15.8736 8.89107C15.8459 9.01204 15.7964 9.09046 15.6973 9.24731C14.8787 10.5435 12.4421 13.8202 8.7288 13.8202C5.01552 13.8202 2.57889 10.5435 1.76029 9.24731Z" stroke="#340717" stroke-width="1.45476" stroke-linecap="round" stroke-linejoin="round"/>
<path d="M8.7288 10.9107C9.93396 10.9107 10.9109 9.93373 10.9109 8.72856C10.9109 7.5234 9.93396 6.54642 8.7288 6.54642C7.52364 6.54642 6.54666 7.5234 6.54666 8.72856C6.54666 9.93373 7.52364 10.9107 8.7288 10.9107Z" stroke="#340717" stroke-width="1.45476" stroke-linecap="round" stroke-linejoin="round"/>
</svg>
