<svg width="32" height="33" viewBox="0 0 32 33" fill="none" xmlns="http://www.w3.org/2000/svg">
<path d="M16.4921 12.3412C17.3913 13.7329 18.5781 14.9197 19.9698 15.8188C20.3301 16.0519 20.3301 16.5693 19.9698 16.8023C18.5781 17.7015 17.3913 18.8883 16.4921 20.28C16.259 20.6403 15.7416 20.6403 15.5086 20.28C14.6094 18.8883 13.4227 17.7015 12.0309 16.8023C11.6706 16.5693 11.6706 16.0519 12.0309 15.8188C13.4227 14.9197 14.6094 13.7329 15.5086 12.3412C15.7416 11.9808 16.259 11.9808 16.4921 12.3412ZM15.9995 0.308105L14.3731 7.88165C13.6408 11.2883 10.9797 13.9494 7.57308 14.6817L-0.000488281 16.3081L7.57308 17.9346C10.9797 18.6668 13.6408 21.3279 14.3731 24.7346L15.9995 32.3081L17.626 24.7346C18.3582 21.3279 21.0194 18.6668 24.426 17.9346L31.9995 16.3081L24.426 14.6817C21.0194 13.9494 18.3582 11.2883 17.626 7.88165L15.9995 0.308105Z" fill="#340717"/>
</svg>
